# MagicaVoxel @ Ephtracy

# material
mtllib pintinho.mtl
usemtl palette

# normals
vn -1 0 0
vn 1 0 0
vn 0 0 1
vn 0 0 -1
vn 0 -1 0
vn 0 1 0

# texcoords
vt 0.0605469 0.5
vt 0.466797 0.5
vt 0.849609 0.5
vt 0.908203 0.5

# verts
v -4 3 1.5
v -4 3 -2.5
v -4 4 -1.5
v -4 4 -2.5
v -4 5 1.5
v -4 5 -1.5
v -3 2 1.5
v -3 2 -2.5
v -3 3 2.5
v -3 3 1.5
v -3 3 -2.5
v -3 3 -3.5
v -3 4 -1.5
v -3 4 -2.5
v -3 4 -3.5
v -3 5 1.5
v -3 5 -1.5
v -3 5 -2.5
v -3 8 2.5
v -3 8 1.5
v -3 8 -0.5
v -3 8 -1.5
v -3 9 1.5
v -3 9 -0.5
v -2 0 2.5
v -2 0 0.5
v -2 1 2.5
v -2 1 1.5
v -2 2 2.5
v -2 2 1.5
v -2 2 0.5
v -2 2 -2.5
v -2 2 -3.5
v -2 3 2.5
v -2 3 1.5
v -2 3 -2.5
v -2 3 -3.5
v -2 4 -2.5
v -2 4 -3.5
v -2 5 -2.5
v -2 5 -3.5
v -2 8 2.5
v -2 8 1.5
v -2 8 -0.5
v -2 8 -1.5
v -2 9 2.5
v -2 9 1.5
v -2 9 -0.5
v -2 9 -1.5
v -1 5 3.5
v -1 5 2.5
v -1 6 3.5
v -1 6 2.5
v 1 0 2.5
v 1 0 0.5
v 1 1 2.5
v 1 1 1.5
v 1 2 1.5
v 1 2 0.5
v -1 0 2.5
v -1 0 0.5
v -1 1 2.5
v -1 1 1.5
v -1 2 1.5
v -1 2 0.5
v 1 5 3.5
v 1 5 2.5
v 1 6 3.5
v 1 6 2.5
v 2 0 2.5
v 2 0 0.5
v 2 1 2.5
v 2 1 1.5
v 2 2 2.5
v 2 2 1.5
v 2 2 0.5
v 2 2 -2.5
v 2 2 -3.5
v 2 3 2.5
v 2 3 1.5
v 2 3 -2.5
v 2 3 -3.5
v 2 4 -2.5
v 2 4 -3.5
v 2 5 -2.5
v 2 5 -3.5
v 2 8 2.5
v 2 8 1.5
v 2 8 -0.5
v 2 8 -1.5
v 2 9 2.5
v 2 9 1.5
v 2 9 -0.5
v 2 9 -1.5
v 3 2 1.5
v 3 2 -2.5
v 3 3 2.5
v 3 3 1.5
v 3 3 -2.5
v 3 3 -3.5
v 3 4 -1.5
v 3 4 -2.5
v 3 4 -3.5
v 3 5 1.5
v 3 5 -1.5
v 3 5 -2.5
v 3 8 2.5
v 3 8 1.5
v 3 8 -0.5
v 3 8 -1.5
v 3 9 1.5
v 3 9 -0.5
v 4 3 1.5
v 4 3 -2.5
v 4 4 -1.5
v 4 4 -2.5
v 4 5 1.5
v 4 5 -1.5
v -1 5 3.5
v -1 6 3.5
v 1 5 3.5
v 1 6 3.5
v -3 3 2.5
v -3 8 2.5
v -2 0 2.5
v -2 1 2.5
v -2 2 2.5
v -2 3 2.5
v -2 6 2.5
v -2 7 2.5
v -2 8 2.5
v -2 9 2.5
v -1 0 2.5
v -1 1 2.5
v -1 5 2.5
v -1 6 2.5
v -1 7 2.5
v -1 8 2.5
v 1 0 2.5
v 1 1 2.5
v 1 5 2.5
v 1 6 2.5
v 1 7 2.5
v 1 8 2.5
v 2 0 2.5
v 2 1 2.5
v 2 2 2.5
v 2 3 2.5
v 2 6 2.5
v 2 7 2.5
v 2 8 2.5
v 2 9 2.5
v 3 3 2.5
v 3 8 2.5
v -4 3 1.5
v -4 5 1.5
v -3 2 1.5
v -3 3 1.5
v -3 5 1.5
v -3 8 1.5
v -3 9 1.5
v -2 1 1.5
v -2 2 1.5
v -2 3 1.5
v -2 8 1.5
v -2 9 1.5
v -1 1 1.5
v -1 2 1.5
v 1 1 1.5
v 1 2 1.5
v 2 1 1.5
v 2 2 1.5
v 2 3 1.5
v 2 8 1.5
v 2 9 1.5
v 3 2 1.5
v 3 3 1.5
v 3 5 1.5
v 3 8 1.5
v 3 9 1.5
v 4 3 1.5
v 4 5 1.5
v -2 0 0.5
v -2 2 0.5
v -1 0 0.5
v -1 2 0.5
v 1 0 0.5
v 1 2 0.5
v 2 0 0.5
v 2 2 0.5
v -3 8 -0.5
v -3 9 -0.5
v -2 8 -0.5
v -2 9 -0.5
v 2 8 -0.5
v 2 9 -0.5
v 3 8 -0.5
v 3 9 -0.5
v -4 4 -1.5
v -4 5 -1.5
v -3 4 -1.5
v -3 5 -1.5
v -3 8 -1.5
v -2 8 -1.5
v -2 9 -1.5
v 2 8 -1.5
v 2 9 -1.5
v 3 4 -1.5
v 3 5 -1.5
v 3 8 -1.5
v 4 4 -1.5
v 4 5 -1.5
v -4 3 -2.5
v -4 4 -2.5
v -3 2 -2.5
v -3 3 -2.5
v -3 4 -2.5
v -3 5 -2.5
v -2 2 -2.5
v -2 3 -2.5
v -2 4 -2.5
v -2 5 -2.5
v 2 2 -2.5
v 2 3 -2.5
v 2 4 -2.5
v 2 5 -2.5
v 3 2 -2.5
v 3 3 -2.5
v 3 4 -2.5
v 3 5 -2.5
v 4 3 -2.5
v 4 4 -2.5
v -3 3 -3.5
v -3 4 -3.5
v -2 2 -3.5
v -2 3 -3.5
v -2 4 -3.5
v -2 5 -3.5
v 2 2 -3.5
v 2 3 -3.5
v 2 4 -3.5
v 2 5 -3.5
v 3 3 -3.5
v 3 4 -3.5
v -2 0 2.5
v -1 0 2.5
v 1 0 2.5
v 2 0 2.5
v -2 0 0.5
v -1 0 0.5
v 1 0 0.5
v 2 0 0.5
v -2 2 2.5
v 2 2 2.5
v -3 2 1.5
v -2 2 1.5
v -1 2 1.5
v 1 2 1.5
v 2 2 1.5
v 3 2 1.5
v -2 2 0.5
v -1 2 0.5
v 1 2 0.5
v 2 2 0.5
v -3 2 -2.5
v -2 2 -2.5
v 2 2 -2.5
v 3 2 -2.5
v -2 2 -3.5
v 2 2 -3.5
v -3 3 2.5
v -2 3 2.5
v 2 3 2.5
v 3 3 2.5
v -4 3 1.5
v -3 3 1.5
v -2 3 1.5
v 2 3 1.5
v 3 3 1.5
v 4 3 1.5
v -4 3 -2.5
v -3 3 -2.5
v -2 3 -2.5
v 2 3 -2.5
v 3 3 -2.5
v 4 3 -2.5
v -3 3 -3.5
v -2 3 -3.5
v 2 3 -3.5
v 3 3 -3.5
v -1 5 3.5
v 1 5 3.5
v -1 5 2.5
v 1 5 2.5
v -2 1 2.5
v -1 1 2.5
v 1 1 2.5
v 2 1 2.5
v -2 1 1.5
v -1 1 1.5
v 1 1 1.5
v 2 1 1.5
v -4 4 -1.5
v -3 4 -1.5
v 3 4 -1.5
v 4 4 -1.5
v -4 4 -2.5
v -3 4 -2.5
v -2 4 -2.5
v 2 4 -2.5
v 3 4 -2.5
v 4 4 -2.5
v -3 4 -3.5
v -2 4 -3.5
v 2 4 -3.5
v 3 4 -3.5
v -4 5 1.5
v -3 5 1.5
v 3 5 1.5
v 4 5 1.5
v -4 5 -1.5
v -3 5 -1.5
v 3 5 -1.5
v 4 5 -1.5
v -3 5 -2.5
v -2 5 -2.5
v 2 5 -2.5
v 3 5 -2.5
v -2 5 -3.5
v 2 5 -3.5
v -1 6 3.5
v 1 6 3.5
v -1 6 2.5
v 1 6 2.5
v -3 8 2.5
v -2 8 2.5
v 2 8 2.5
v 3 8 2.5
v -3 8 1.5
v -2 8 1.5
v 2 8 1.5
v 3 8 1.5
v -3 8 -0.5
v -2 8 -0.5
v 2 8 -0.5
v 3 8 -0.5
v -3 8 -1.5
v -2 8 -1.5
v 2 8 -1.5
v 3 8 -1.5
v -2 9 2.5
v 2 9 2.5
v -3 9 1.5
v -2 9 1.5
v 2 9 1.5
v 3 9 1.5
v -3 9 -0.5
v -2 9 -0.5
v 2 9 -0.5
v 3 9 -0.5
v -2 9 -1.5
v 2 9 -1.5

# faces
f 3/3/1 2/3/1 1/3/1
f 4/3/1 2/3/1 3/3/1
f 5/3/1 3/3/1 1/3/1
f 6/3/1 3/3/1 5/3/1
f 10/3/1 8/3/1 7/3/1
f 11/3/1 8/3/1 10/3/1
f 14/3/1 12/3/1 11/3/1
f 15/3/1 12/3/1 14/3/1
f 16/3/1 10/3/1 9/3/1
f 17/3/1 14/3/1 13/3/1
f 18/3/1 14/3/1 17/3/1
f 19/3/1 16/3/1 9/3/1
f 19/3/1 17/3/1 16/3/1
f 20/3/1 17/3/1 19/3/1
f 21/3/1 17/3/1 20/3/1
f 22/3/1 17/3/1 21/3/1
f 23/3/1 21/3/1 20/3/1
f 24/3/1 21/3/1 23/3/1
f 27/4/1 26/4/1 25/4/1
f 28/4/1 26/4/1 27/4/1
f 30/4/1 26/4/1 28/4/1
f 31/4/1 26/4/1 30/4/1
f 34/3/1 30/3/1 29/3/1
f 35/3/1 30/3/1 34/3/1
f 36/3/1 33/3/1 32/3/1
f 37/3/1 33/3/1 36/3/1
f 40/3/1 39/3/1 38/3/1
f 41/3/1 39/3/1 40/3/1
f 46/3/1 43/3/1 42/3/1
f 47/3/1 43/3/1 46/3/1
f 48/3/1 45/3/1 44/3/1
f 49/3/1 45/3/1 48/3/1
f 52/4/1 51/4/1 50/4/1
f 53/4/1 51/4/1 52/4/1
f 56/4/1 55/4/1 54/4/1
f 57/4/1 55/4/1 56/4/1
f 58/4/1 55/4/1 57/4/1
f 59/4/1 55/4/1 58/4/1
f 60/4/2 61/4/2 62/4/2
f 62/4/2 61/4/2 63/4/2
f 63/4/2 61/4/2 64/4/2
f 64/4/2 61/4/2 65/4/2
f 66/4/2 67/4/2 68/4/2
f 68/4/2 67/4/2 69/4/2
f 70/4/2 71/4/2 72/4/2
f 72/4/2 71/4/2 73/4/2
f 73/4/2 71/4/2 75/4/2
f 75/4/2 71/4/2 76/4/2
f 74/3/2 75/3/2 79/3/2
f 79/3/2 75/3/2 80/3/2
f 77/3/2 78/3/2 81/3/2
f 81/3/2 78/3/2 82/3/2
f 83/3/2 84/3/2 85/3/2
f 85/3/2 84/3/2 86/3/2
f 87/3/2 88/3/2 91/3/2
f 91/3/2 88/3/2 92/3/2
f 89/3/2 90/3/2 93/3/2
f 93/3/2 90/3/2 94/3/2
f 95/3/2 96/3/2 98/3/2
f 98/3/2 96/3/2 99/3/2
f 99/3/2 100/3/2 102/3/2
f 102/3/2 100/3/2 103/3/2
f 97/3/2 98/3/2 104/3/2
f 101/3/2 102/3/2 105/3/2
f 105/3/2 102/3/2 106/3/2
f 97/3/2 104/3/2 107/3/2
f 104/3/2 105/3/2 107/3/2
f 107/3/2 105/3/2 108/3/2
f 108/3/2 105/3/2 109/3/2
f 109/3/2 105/3/2 110/3/2
f 108/3/2 109/3/2 111/3/2
f 111/3/2 109/3/2 112/3/2
f 113/3/2 114/3/2 115/3/2
f 115/3/2 114/3/2 116/3/2
f 113/3/2 115/3/2 117/3/2
f 117/3/2 115/3/2 118/3/2
f 121/4/3 120/4/3 119/4/3
f 122/4/3 120/4/3 121/4/3
f 128/3/3 124/3/3 123/3/3
f 129/3/3 124/3/3 128/3/3
f 130/3/3 124/3/3 129/3/3
f 131/3/3 124/3/3 130/3/3
f 133/4/3 126/4/3 125/4/3
f 134/4/3 126/4/3 133/4/3
f 135/3/3 128/3/3 127/3/3
f 135/3/3 129/3/3 128/3/3
f 136/1/3 130/1/3 129/1/3
f 136/3/3 129/3/3 135/3/3
f 137/2/3 131/2/3 130/2/3
f 137/1/3 130/1/3 136/1/3
f 138/3/3 132/3/3 131/3/3
f 138/2/3 131/2/3 137/2/3
f 141/3/3 135/3/3 127/3/3
f 142/3/3 137/3/3 136/3/3
f 142/3/3 138/3/3 137/3/3
f 143/3/3 138/3/3 142/3/3
f 144/3/3 132/3/3 138/3/3
f 144/3/3 138/3/3 143/3/3
f 145/4/3 140/4/3 139/4/3
f 146/4/3 140/4/3 145/4/3
f 147/3/3 141/3/3 127/3/3
f 147/3/3 142/3/3 141/3/3
f 148/3/3 142/3/3 147/3/3
f 149/1/3 143/1/3 142/1/3
f 149/3/3 142/3/3 148/3/3
f 150/2/3 144/2/3 143/2/3
f 150/1/3 143/1/3 149/1/3
f 151/3/3 132/3/3 144/3/3
f 151/2/3 144/2/3 150/2/3
f 152/3/3 132/3/3 151/3/3
f 153/3/3 151/3/3 150/3/3
f 153/3/3 150/3/3 149/3/3
f 153/3/3 149/3/3 148/3/3
f 154/3/3 151/3/3 153/3/3
f 158/3/3 156/3/3 155/3/3
f 159/3/3 156/3/3 158/3/3
f 163/3/3 158/3/3 157/3/3
f 164/3/3 158/3/3 163/3/3
f 165/3/3 161/3/3 160/3/3
f 166/3/3 161/3/3 165/3/3
f 167/4/3 163/4/3 162/4/3
f 168/4/3 163/4/3 167/4/3
f 171/4/3 170/4/3 169/4/3
f 172/4/3 170/4/3 171/4/3
f 176/3/3 173/3/3 172/3/3
f 177/3/3 173/3/3 176/3/3
f 179/3/3 175/3/3 174/3/3
f 180/3/3 175/3/3 179/3/3
f 181/3/3 178/3/3 177/3/3
f 182/3/3 178/3/3 181/3/3
f 183/4/4 184/4/4 185/4/4
f 185/4/4 184/4/4 186/4/4
f 187/4/4 188/4/4 189/4/4
f 189/4/4 188/4/4 190/4/4
f 191/3/4 192/3/4 193/3/4
f 193/3/4 192/3/4 194/3/4
f 195/3/4 196/3/4 197/3/4
f 197/3/4 196/3/4 198/3/4
f 199/3/4 200/3/4 201/3/4
f 201/3/4 200/3/4 202/3/4
f 202/3/4 203/3/4 204/3/4
f 202/3/4 204/3/4 206/3/4
f 204/3/4 205/3/4 206/3/4
f 206/3/4 205/3/4 207/3/4
f 202/3/4 206/3/4 209/3/4
f 209/3/4 206/3/4 210/3/4
f 208/3/4 209/3/4 211/3/4
f 211/3/4 209/3/4 212/3/4
f 213/3/4 214/3/4 216/3/4
f 216/3/4 214/3/4 217/3/4
f 215/3/4 216/3/4 219/3/4
f 219/3/4 216/3/4 220/3/4
f 217/3/4 218/3/4 221/3/4
f 221/3/4 218/3/4 222/3/4
f 223/3/4 224/3/4 227/3/4
f 227/3/4 224/3/4 228/3/4
f 225/3/4 226/3/4 229/3/4
f 229/3/4 226/3/4 230/3/4
f 228/3/4 229/3/4 231/3/4
f 231/3/4 229/3/4 232/3/4
f 233/3/4 234/3/4 236/3/4
f 236/3/4 234/3/4 237/3/4
f 235/3/4 236/3/4 239/3/4
f 237/3/4 238/3/4 239/3/4
f 236/3/4 237/3/4 239/3/4
f 239/3/4 238/3/4 240/3/4
f 240/3/4 238/3/4 241/3/4
f 241/3/4 238/3/4 242/3/4
f 240/3/4 241/3/4 243/3/4
f 243/3/4 241/3/4 244/3/4
f 249/4/5 246/4/5 245/4/5
f 250/4/5 246/4/5 249/4/5
f 251/4/5 248/4/5 247/4/5
f 252/4/5 248/4/5 251/4/5
f 256/3/5 254/3/5 253/3/5
f 257/3/5 254/3/5 256/3/5
f 258/3/5 254/3/5 257/3/5
f 259/3/5 254/3/5 258/3/5
f 261/3/5 256/3/5 255/3/5
f 262/3/5 258/3/5 257/3/5
f 263/3/5 258/3/5 262/3/5
f 264/3/5 260/3/5 259/3/5
f 265/3/5 263/3/5 262/3/5
f 265/3/5 264/3/5 263/3/5
f 265/3/5 261/3/5 255/3/5
f 265/3/5 262/3/5 261/3/5
f 266/3/5 264/3/5 265/3/5
f 267/3/5 260/3/5 264/3/5
f 267/3/5 264/3/5 266/3/5
f 268/3/5 260/3/5 267/3/5
f 269/3/5 267/3/5 266/3/5
f 270/3/5 267/3/5 269/3/5
f 276/3/5 272/3/5 271/3/5
f 277/3/5 272/3/5 276/3/5
f 278/3/5 274/3/5 273/3/5
f 279/3/5 274/3/5 278/3/5
f 281/3/5 276/3/5 275/3/5
f 282/3/5 276/3/5 281/3/5
f 285/3/5 280/3/5 279/3/5
f 286/3/5 280/3/5 285/3/5
f 287/3/5 283/3/5 282/3/5
f 288/3/5 283/3/5 287/3/5
f 289/3/5 285/3/5 284/3/5
f 290/3/5 285/3/5 289/3/5
f 293/4/5 292/4/5 291/4/5
f 294/4/5 292/4/5 293/4/5
f 295/4/6 296/4/6 299/4/6
f 299/4/6 296/4/6 300/4/6
f 297/4/6 298/4/6 301/4/6
f 301/4/6 298/4/6 302/4/6
f 303/3/6 304/3/6 307/3/6
f 307/3/6 304/3/6 308/3/6
f 305/3/6 306/3/6 311/3/6
f 311/3/6 306/3/6 312/3/6
f 308/3/6 309/3/6 313/3/6
f 313/3/6 309/3/6 314/3/6
f 310/3/6 311/3/6 315/3/6
f 315/3/6 311/3/6 316/3/6
f 317/3/6 318/3/6 321/3/6
f 321/3/6 318/3/6 322/3/6
f 319/3/6 320/3/6 323/3/6
f 323/3/6 320/3/6 324/3/6
f 322/3/6 323/3/6 325/3/6
f 325/3/6 323/3/6 326/3/6
f 326/3/6 323/3/6 327/3/6
f 327/3/6 323/3/6 328/3/6
f 326/3/6 327/3/6 329/3/6
f 329/3/6 327/3/6 330/3/6
f 331/4/6 332/4/6 333/4/6
f 333/4/6 332/4/6 334/4/6
f 335/3/6 336/3/6 339/3/6
f 339/3/6 336/3/6 340/3/6
f 337/3/6 338/3/6 341/3/6
f 341/3/6 338/3/6 342/3/6
f 343/3/6 344/3/6 347/3/6
f 347/3/6 344/3/6 348/3/6
f 345/3/6 346/3/6 349/3/6
f 349/3/6 346/3/6 350/3/6
f 351/3/6 352/3/6 354/3/6
f 354/3/6 352/3/6 355/3/6
f 353/3/6 354/3/6 357/3/6
f 355/3/6 356/3/6 357/3/6
f 354/3/6 355/3/6 357/3/6
f 357/3/6 356/3/6 358/3/6
f 358/3/6 356/3/6 359/3/6
f 359/3/6 356/3/6 360/3/6
f 358/3/6 359/3/6 361/3/6
f 361/3/6 359/3/6 362/3/6
