<?xml version="1.0" encoding="utf-8"?>
<!-- Generator: Adobe Illustrator 16.0.0, SVG Export Plug-In . SVG Version: 6.00 Build 0)  -->
<!DOCTYPE svg PUBLIC "-//W3C//DTD SVG 1.1//EN" "http://www.w3.org/Graphics/SVG/1.1/DTD/svg11.dtd">
<svg version="1.1" id="Capa_1" xmlns="http://www.w3.org/2000/svg" xmlns:xlink="http://www.w3.org/1999/xlink" x="0px" y="0px"
	 width="300px" height="300px" viewBox="0 0 300 300" enable-background="new 0 0 300 300" xml:space="preserve">
<g>
	<path d="M177.465,120h10c2.766,0,5-2.235,5-5s-2.234-5-5-5h-10c-2.765,0-5,2.235-5,5S174.7,120,177.465,120z"/>
	<path d="M159.975,155c-2.164-0.005-4.27-0.391-6.26-1.15c-2.561-0.975-5.465,0.311-6.455,2.891c-0.98,2.58,0.315,5.47,2.89,6.455
		c3.129,1.189,6.425,1.8,9.815,1.805h1.785c2.766,0,5-2.234,5-5s-2.234-5-5-5H159.975z"/>
	<path d="M148.105,123.38c0.905,0,1.815-0.245,2.64-0.755c2.215-1.38,4.665-2.225,7.271-2.515c2.744-0.305,4.725-2.775,4.424-5.52
		c-0.299-2.745-2.754-4.705-5.52-4.425c-4.109,0.455-7.97,1.785-11.47,3.97c-2.345,1.46-3.055,4.545-1.595,6.89
		C144.805,122.545,146.435,123.38,148.105,123.38z"/>
	<path d="M179.965,200c-0.43,0-0.855,0.01-1.279,0.029c-2.761,0.111-4.9,2.441-4.791,5.201c0.105,2.689,2.326,4.795,4.99,4.795
		c0.07,0,0.141,0,0.211-0.006l9.795-0.02c2.764,0,5-2.234,5-5s-2.236-5-5-5H179.965z"/>
	<path d="M217.465,120c2.766,0,5-2.235,5-5s-2.234-5-5-5h-10c-2.765,0-5,2.235-5,5s2.235,5,5,5H217.465z"/>
	<path d="M238.891,200c-2.766,0-5,2.234-5,5s2.234,5,5,5h10c2.764,0,5-2.234,5-5s-2.236-5-5-5H238.891z"/>
	<path d="M256.755,160c0-2.766-2.235-5-5-5h-10c-2.765,0-5,2.234-5,5s2.235,5,5,5h10C254.516,165,256.755,162.766,256.755,160z"/>
	<path d="M208.891,210h10c2.764,0,5-2.234,5-5s-2.236-5-5-5h-10c-2.766,0-5,2.234-5,5S206.13,210,208.891,210z"/>
	<path d="M226.755,160c0-2.766-2.235-5-5-5h-10c-2.765,0-5,2.234-5,5s2.235,5,5,5h10C224.516,165,226.755,162.766,226.755,160z"/>
	<path d="M181.755,155c-2.765,0-5,2.234-5,5s2.235,5,5,5h10c2.765,0,5-2.234,5-5s-2.235-5-5-5H181.755z"/>
	<path d="M120.32,290h-10c-2.765,0-5,2.234-5,5s2.235,5,5,5h10c2.765,0,5-2.234,5-5S123.08,290,120.32,290z"/>
	<path d="M90.32,290h-10c-2.765,0-5,2.234-5,5s2.235,5,5,5h10c2.765,0,5-2.234,5-5S93.08,290,90.32,290z"/>
	<path d="M263.02,272.585c-2.694-0.604-5.369,1.085-5.975,3.78c-0.574,2.55-1.689,4.895-3.314,6.96
		c-1.705,2.17-1.336,5.315,0.84,7.02c0.92,0.72,2.005,1.07,3.084,1.07c1.486,0,2.951-0.655,3.936-1.91
		c2.52-3.2,4.32-6.979,5.21-10.94C267.404,275.865,265.715,273.189,263.02,272.585z"/>
	<path d="M257.654,263.596c1.08,0,2.176-0.351,3.086-1.07c2.175-1.711,2.545-4.855,0.84-7.021c-2.516-3.194-5.76-5.835-9.395-7.64
		c-2.485-1.235-5.476-0.221-6.705,2.25c-1.23,2.475-0.221,5.475,2.25,6.705c2.314,1.145,4.385,2.83,5.984,4.869
		C254.705,262.939,256.17,263.596,257.654,263.596z"/>
	<path d="M235.325,250c0-2.766-2.235-5-5-5h-10c-2.765,0-5,2.234-5,5s2.235,5,5,5h10C233.085,255,235.325,252.766,235.325,250z"/>
	<path d="M239.965,290h-9.65c-2.765,0-5,2.234-5,5s2.235,5,5,5l9.855-0.005l0.145-5v5c2.766,0,4.826-2.235,4.826-5
		C245.141,292.234,242.73,290,239.965,290z"/>
	<path d="M297.13,178.16c-0.44-2.73-3.015-4.596-5.729-4.145c-2.73,0.435-4.586,3.004-4.146,5.729c0.14,0.89,0.22,1.795,0.21,2.76
		c0,1.681-0.24,3.341-0.71,4.94c-0.774,2.649,0.74,5.43,3.396,6.205c0.47,0.135,0.939,0.199,1.404,0.199
		c2.166,0,4.16-1.41,4.801-3.595c0.734-2.515,1.109-5.12,1.109-7.715C297.475,181.1,297.365,179.625,297.13,178.16z"/>
	<path d="M140.145,149.275c2.62-0.865,4.05-3.69,3.19-6.315c-0.575-1.755-0.87-3.59-0.87-5.44c0.005-0.755,0.05-1.51,0.14-2.245
		c0.345-2.74-1.595-5.245-4.335-5.585c-2.825-0.315-5.245,1.605-5.585,4.335c-0.14,1.13-0.215,2.28-0.22,3.47
		c0,2.94,0.46,5.83,1.365,8.59c0.695,2.105,2.65,3.44,4.75,3.44C139.1,149.525,139.63,149.45,140.145,149.275z"/>
	<path d="M283.73,158.689c-3.57-2.069-7.471-3.285-11.586-3.609c-2.744-0.2-5.16,1.835-5.375,4.595
		c-0.215,2.755,1.84,5.16,4.596,5.375c2.609,0.205,5.085,0.976,7.35,2.29c0.79,0.46,1.655,0.676,2.505,0.676
		c1.726,0,3.405-0.896,4.33-2.49C286.936,163.141,286.12,160.08,283.73,158.689z"/>
	<path d="M276.725,198.645c-2.145,0.9-4.414,1.355-6.76,1.355h-1.074c-2.766,0-5,2.234-5,5s2.234,5,5,5h1.074
		c3.68,0,7.256-0.721,10.625-2.135c2.551-1.07,3.745-4,2.676-6.545C282.2,198.775,279.25,197.575,276.725,198.645z"/>
	<path d="M162.775,224.195c0.494-2.57,1.535-4.945,3.095-7.065c1.635-2.22,1.159-5.35-1.065-6.989
		c-2.225-1.631-5.35-1.16-6.99,1.064c-2.444,3.33-4.084,7.064-4.864,11.109c-0.521,2.711,1.255,5.33,3.97,5.855
		c0.314,0.061,0.635,0.09,0.945,0.09C160.215,228.25,162.311,226.585,162.775,224.195z"/>
	<path d="M170.609,252.971c1.9,0,3.711-1.086,4.551-2.921c1.145-2.515,0.045-5.479-2.465-6.625c-2.346-1.075-4.471-2.69-6.141-4.68
		c-1.779-2.115-4.93-2.39-7.045-0.61c-2.115,1.775-2.39,4.93-0.609,7.045c2.619,3.115,5.949,5.655,9.635,7.336
		C169.21,252.82,169.915,252.971,170.609,252.971z"/>
	<path d="M150.32,290h-10c-2.765,0-5,2.234-5,5s2.235,5,5,5h10c2.765,0,5-2.234,5-5S153.08,290,150.32,290z"/>
	<path d="M180.32,290h-10c-2.766,0-5,2.234-5,5s2.234,5,5,5h10c2.765,0,5-2.234,5-5S183.08,290,180.32,290z"/>
	<path d="M205.325,250c0-2.766-2.235-5-5-5h-10c-2.765,0-5,2.234-5,5s2.235,5,5,5h10C203.085,255,205.325,252.766,205.325,250z"/>
	<path d="M210.32,290h-10c-2.766,0-5,2.234-5,5s2.234,5,5,5h10c2.765,0,5-2.234,5-5S213.08,290,210.32,290z"/>
	<path d="M105.105,144.885C93.75,132.06,78.61,125,62.465,125s-31.285,7.06-42.635,19.885c-23.06,26.055-23.06,68.44,0,94.495
		l42.635,48.165L105.1,239.38C128.165,213.325,128.165,170.939,105.105,144.885z M62.465,215c-16.545,0-30-13.455-30-30
		s13.455-30,30-30s30,13.455,30,30S79.01,215,62.465,215z"/>
	<path d="M243.734,122.535l32.32-36.43c17.391-19.6,17.391-51.48,0-71.08C267.455,5.335,255.975,0,243.73,0
		c-12.24,0-23.721,5.335-32.32,15.025c-17.385,19.6-17.385,51.48,0,71.08L243.734,122.535z M244.965,20
		c15.16,0,27.5,12.34,27.5,27.5s-12.34,27.5-27.5,27.5s-27.5-12.34-27.5-27.5S229.805,20,244.965,20z"/>
</g>
</svg>
