<?xml version="1.0" encoding="utf-8"?>
<!-- Generator: Adobe Illustrator 16.0.0, SVG Export Plug-In . SVG Version: 6.00 Build 0)  -->
<!DOCTYPE svg PUBLIC "-//W3C//DTD SVG 1.1//EN" "http://www.w3.org/Graphics/SVG/1.1/DTD/svg11.dtd">
<svg version="1.1" id="Capa_1" xmlns="http://www.w3.org/2000/svg" xmlns:xlink="http://www.w3.org/1999/xlink" x="0px" y="0px"
	 width="300px" height="300px" viewBox="0 0 300 300" enable-background="new 0 0 300 300" xml:space="preserve">
<polygon fill="#FF4F19" points="160.059,282.422 150.105,247.586 133.203,252.415 141.776,282.422 128.809,282.422 118.855,247.586 
	101.953,252.414 110.526,282.422 97.904,282.422 97.904,300 191.654,300 191.654,282.422 "/>
<polygon fill="#FF4F19" points="262.542,137.599 230.092,112.404 272.339,93.61 279.484,109.671 264.068,116.529 273.322,123.715 
	"/>
<path fill="#FFE981" d="M182.824,32.039c-40.587,0-73.608,33.021-73.608,73.608c0,10.286,2.093,20.262,6.131,29.476
	c-27.222-0.179-58.222-0.73-58.593-0.737l-8.946-0.16v20.628H20.516v8.789c0,26.224,11.329,50.821,31.899,69.265
	c20.301,18.201,47.229,28.225,75.825,28.225c28.595,0,55.523-10.023,75.824-28.225c20.57-18.443,31.898-43.041,31.898-69.265v-7.069
	c13.054-13.64,20.471-31.985,20.471-50.927C256.434,65.06,223.412,32.039,182.824,32.039z"/>
<rect x="191.654" y="76.821" fill="#132F3B" width="17.578" height="27.679"/>
</svg>
