<?xml version="1.0" encoding="utf-8"?>
<!-- Generator: Adobe Illustrator 16.0.0, SVG Export Plug-In . SVG Version: 6.00 Build 0)  -->
<!DOCTYPE svg PUBLIC "-//W3C//DTD SVG 1.1//EN" "http://www.w3.org/Graphics/SVG/1.1/DTD/svg11.dtd">
<svg version="1.1" id="Capa_1" xmlns="http://www.w3.org/2000/svg" xmlns:xlink="http://www.w3.org/1999/xlink" x="0px" y="0px"
	 width="300px" height="300px" viewBox="0 0 300 300" enable-background="new 0 0 300 300" xml:space="preserve">
<g>
	<g>
		<path d="M158.575,130.054c-3.294,3.293-3.294,8.575,0,11.868c13.608,13.608,13.608,35.729,0,49.338l-71.458,71.457
			c-13.608,13.609-35.729,13.609-49.337,0l-10.75-10.749c-13.608-13.608-13.608-35.729,0-49.337l71.458-71.458
			c3.293-3.293,3.293-8.575,0-11.868c-3.293-3.293-8.575-3.293-11.868,0l-71.458,71.458C5.406,200.518,0,213.504,0,227.299
			s5.344,26.781,15.162,36.537l10.75,10.75c10.066,10.066,23.302,15.1,36.537,15.1s26.471-5.033,36.537-15.1l71.458-71.459
			c20.133-20.132,20.133-52.94,0-73.073C167.212,126.761,161.868,126.761,158.575,130.054z"/>
		<path d="M284.9,36.164l-10.75-10.75c-20.133-20.132-52.941-20.132-73.073,0l-71.458,71.458c-20.133,20.132-20.133,52.941,0,73.074
			c3.293,3.293,8.575,3.293,11.868,0c3.293-3.294,3.293-8.575,0-11.868c-13.608-13.608-13.608-35.729,0-49.337l71.458-71.458
			c13.607-13.608,35.729-13.608,49.338,0l10.749,10.75c13.608,13.608,13.608,35.729,0,49.337l-71.458,71.458
			c-3.293,3.293-3.293,8.574,0,11.867c1.615,1.616,3.791,2.486,5.902,2.486c2.113,0,4.288-0.809,5.904-2.486l71.457-71.458
			C294.594,99.482,300,86.496,300,72.701C300,58.906,294.656,45.919,284.9,36.164z"/>
	</g>
</g>
</svg>
