<?xml version="1.0" encoding="utf-8"?>
<!-- Generator: Adobe Illustrator 16.0.0, SVG Export Plug-In . SVG Version: 6.00 Build 0)  -->
<!DOCTYPE svg PUBLIC "-//W3C//DTD SVG 1.1//EN" "http://www.w3.org/Graphics/SVG/1.1/DTD/svg11.dtd">
<svg version="1.1" id="Capa_1" xmlns="http://www.w3.org/2000/svg" xmlns:xlink="http://www.w3.org/1999/xlink" x="0px" y="0px"
	 width="100px" height="100px" viewBox="0 0 100 100" enable-background="new 0 0 100 100" xml:space="preserve">
<g>
	<circle fill="#EBBA16" cx="50" cy="50.033" r="50"/>
	<g>
		<g>
			<polygon fill="#FFFFFF" points="85.762,49.783 57.031,68.361 57.031,50.121 57.031,31.205 			"/>
			<path fill="#FFFFFF" d="M57.031,69.6c-0.209,0-0.42-0.047-0.611-0.143c-0.428-0.215-0.695-0.635-0.695-1.096V31.205
				c0-0.459,0.268-0.88,0.695-1.095c0.43-0.215,0.945-0.186,1.348,0.072l28.73,18.578c0.355,0.23,0.57,0.613,0.57,1.024
				c0,0.41-0.215,0.793-0.57,1.023L57.766,69.385C57.545,69.527,57.287,69.6,57.031,69.6z M58.336,33.549v32.468l25.107-16.234
				L58.336,33.549z"/>
		</g>
		<g>
			<polygon fill="#FFFFFF" points="49.84,49.783 21.109,68.362 21.109,50.121 21.109,31.205 			"/>
			<path fill="#FFFFFF" d="M21.109,69.601c-0.209,0-0.419-0.047-0.61-0.144c-0.429-0.214-0.696-0.635-0.696-1.095V31.205
				c0-0.459,0.268-0.88,0.696-1.095c0.428-0.215,0.945-0.186,1.346,0.072l28.73,18.578c0.355,0.23,0.57,0.613,0.57,1.024
				c0,0.41-0.215,0.793-0.57,1.023L21.844,69.385C21.624,69.527,21.366,69.601,21.109,69.601z M22.415,33.549v32.469l25.106-16.235
				L22.415,33.549z"/>
		</g>
	</g>
</g>
</svg>
